  <svg width="166" height="60" xmlns="http://www.w3.org/2000/svg" xmlns:xlink="http://www.w3.org/1999/xlink"
        overflow="hidden">
        <defs>
          <clipPath id="clip0">
            <rect x="242" y="335" width="362" height="187" />
          </clipPath>
        </defs>
        <g clip-path="url(#clip0)" transform="translate(-242 -335)" style="transform: scale(.33) translateX(-200px) translateY(-323px)">
          <path
            d="M356.507 446.906C346.141 452.575 334.272 455.856 323.005 455.856 307.831 455.856 294.16 449.293 284.695 439 282.742 463.912 282.742 463.912 282.742 463.912 256 462.867 256 462.867 256 462.867 272.376 481.365 296.263 493 323.005 493 344.038 493 365.371 486.138 382.798 474.652 384 448.696 384 448.696 384 448.696L356.507 446.906Z"
            fill="#002060" fill-rule="evenodd" />
          <path
            d="M291.563 446.67C285.621 438.7 281.909 429.116 281.386 418.622 280.638 403.63 286.572 389.808 296.549 379.842 269.374 378.492 269.374 378.492 269.374 378.492 268.186 354.654 268.186 354.654 268.186 354.654 251.478 371.719 241.867 395.192 243.129 420.528 244.138 440.767 251.825 459.02 264.087 473.288 290.719 473.013 290.719 473.013 290.719 473.013L291.563 446.67Z"
            fill="#00B0F0" fill-rule="evenodd" />
          <path
            d="M291.3 385.072C299.55 379.537 309.45 376.247 320.1 376.247 334.35 376.247 349.95 382.529 362.25 393 364.95 365.925 364.95 365.925 364.95 365.925 390 367.571 390 367.571 390 367.571 371.1 350.069 345.45 339 320.1 339 299.1 339 279.75 346.18 264.6 358.296 264 382.978 264 382.978 264 382.978L291.3 385.072Z"
            fill="#002060" fill-rule="evenodd" />
          <path
            d="M549.91 382.595C559.536 391.986 565.551 405.103 565.551 419.413 565.551 434.468 559.084 448.033 548.557 457.424 546 482.466 546 482.466 546 482.466 573.974 485 573.974 485 573.974 485 591.871 468.752 603 445.35 603 419.413 603 395.563 593.525 373.95 578.034 358 575.929 383.638 575.929 383.638 575.929 383.638L549.91 382.595Z"
            fill="#64A70B" fill-rule="evenodd" />
          <path
            d="M554.07 453.208C545.827 458.943 535.785 462.415 524.993 462.415 509.405 462.415 492.768 456.075 480.478 445.811 454.248 444 454.248 444 454.248 444 452 470.717 452 470.717 452 470.717 471.035 488.83 498.164 500 524.993 500 545.677 500 564.862 492.906 580 480.83 551.972 478.415 551.972 478.415 551.972 478.415L554.07 453.208Z"
            fill="#385723" fill-rule="evenodd" />
          <path
            d="M482.008 385C493.135 377.553 506.068 373.085 518.098 373.085 530.278 373.085 541.406 377.255 550.278 384.255 576.895 384.851 576.895 384.851 576.895 384.851 579 359.681 579 359.681 579 359.681 563.06 344.936 541.556 336 518.098 336 497.346 336 476.293 343.447 459 355.66 483.511 357.596 483.511 357.596 483.511 357.596L482.008 385Z"
            fill="#385723" fill-rule="evenodd" />
          <path
            d="M362.566 366.229 362.347 394.441 452.131 472.383 452.572 446.602 482.722 445.771 391.622 365.673 362.566 366.229Z"
            fill="#00B0F0" fill-rule="evenodd" />
          <path
            d="M359.321 446.531 462.165 351.45 487.645 356.565 483.6 381.303 381.376 476.942 384.469 451.617 359.321 446.531Z"
            fill="#64A70B" fill-rule="evenodd" /><text font-family="Calibri,Calibri_MSFontService,sans-serif"
            font-weight="400" font-size="88" transform="translate(301.474 444)" fill="white">C<tspan font-size="88" x="192.046"
              y="0">T</tspan></text>
        </g>
      </svg>